<mxfile host="app.diagrams.net" modified="2021-01-11T06:27:18.261Z" agent="5.0 (Windows NT 10.0; WOW64) AppleWebKit/537.36 (KHTML, like Gecko) Chrome/78.0.3904.108 Safari/537.36" etag="ln89nzFioY1fcEJzJyLo" version="14.1.8" type="github">
  <diagram id="IiCy9xCzvewyzQ8KwIXT" name="第 1 页">
    <mxGraphModel dx="1587" dy="610" grid="0" gridSize="10" guides="1" tooltips="1" connect="1" arrows="1" fold="1" page="0" pageScale="1" pageWidth="827" pageHeight="1169" math="0" shadow="0">
      <root>
        <mxCell id="0" />
        <mxCell id="1" parent="0" />
        <mxCell id="uZ23WW5BaQ2IiN3kRdAK-1" value="渠道订单" style="swimlane;fontStyle=1;childLayout=stackLayout;horizontal=1;startSize=26;horizontalStack=0;resizeParent=1;resizeParentMax=0;resizeLast=0;collapsible=1;marginBottom=0;strokeColor=#36393d;rounded=1;fillColor=#ffcc99;" vertex="1" parent="1">
          <mxGeometry x="-68" y="32" width="140" height="494" as="geometry" />
        </mxCell>
        <mxCell id="uZ23WW5BaQ2IiN3kRdAK-28" value="主键" style="text;strokeColor=#36393d;align=left;verticalAlign=top;spacingLeft=4;spacingRight=4;overflow=hidden;rotatable=0;points=[[0,0.5],[1,0.5]];portConstraint=eastwest;fontStyle=1;fillColor=#CDEB8B;" vertex="1" parent="uZ23WW5BaQ2IiN3kRdAK-1">
          <mxGeometry y="26" width="140" height="26" as="geometry" />
        </mxCell>
        <mxCell id="uZ23WW5BaQ2IiN3kRdAK-2" value="订单编号" style="text;strokeColor=#36393d;align=left;verticalAlign=top;spacingLeft=4;spacingRight=4;overflow=hidden;rotatable=0;points=[[0,0.5],[1,0.5]];portConstraint=eastwest;fontStyle=1;fillColor=#CDEB8B;" vertex="1" parent="uZ23WW5BaQ2IiN3kRdAK-1">
          <mxGeometry y="52" width="140" height="26" as="geometry" />
        </mxCell>
        <mxCell id="uZ23WW5BaQ2IiN3kRdAK-3" value="渠道id" style="text;strokeColor=#36393d;align=left;verticalAlign=top;spacingLeft=4;spacingRight=4;overflow=hidden;rotatable=0;points=[[0,0.5],[1,0.5]];portConstraint=eastwest;fontStyle=1;fillColor=#CDEB8B;" vertex="1" parent="uZ23WW5BaQ2IiN3kRdAK-1">
          <mxGeometry y="78" width="140" height="26" as="geometry" />
        </mxCell>
        <mxCell id="uZ23WW5BaQ2IiN3kRdAK-4" value="联系人名称" style="text;strokeColor=#36393d;align=left;verticalAlign=top;spacingLeft=4;spacingRight=4;overflow=hidden;rotatable=0;points=[[0,0.5],[1,0.5]];portConstraint=eastwest;fontStyle=1;fillColor=#CDEB8B;" vertex="1" parent="uZ23WW5BaQ2IiN3kRdAK-1">
          <mxGeometry y="104" width="140" height="26" as="geometry" />
        </mxCell>
        <mxCell id="uZ23WW5BaQ2IiN3kRdAK-17" value="联系人昵称" style="text;strokeColor=#36393d;align=left;verticalAlign=top;spacingLeft=4;spacingRight=4;overflow=hidden;rotatable=0;points=[[0,0.5],[1,0.5]];portConstraint=eastwest;fontStyle=1;fillColor=#CDEB8B;" vertex="1" parent="uZ23WW5BaQ2IiN3kRdAK-1">
          <mxGeometry y="130" width="140" height="26" as="geometry" />
        </mxCell>
        <mxCell id="uZ23WW5BaQ2IiN3kRdAK-18" value="联系人手机号" style="text;strokeColor=#36393d;align=left;verticalAlign=top;spacingLeft=4;spacingRight=4;overflow=hidden;rotatable=0;points=[[0,0.5],[1,0.5]];portConstraint=eastwest;fontStyle=1;fillColor=#CDEB8B;" vertex="1" parent="uZ23WW5BaQ2IiN3kRdAK-1">
          <mxGeometry y="156" width="140" height="26" as="geometry" />
        </mxCell>
        <mxCell id="uZ23WW5BaQ2IiN3kRdAK-19" value="总金额" style="text;strokeColor=#36393d;align=left;verticalAlign=top;spacingLeft=4;spacingRight=4;overflow=hidden;rotatable=0;points=[[0,0.5],[1,0.5]];portConstraint=eastwest;fontStyle=1;fillColor=#CDEB8B;" vertex="1" parent="uZ23WW5BaQ2IiN3kRdAK-1">
          <mxGeometry y="182" width="140" height="26" as="geometry" />
        </mxCell>
        <mxCell id="uZ23WW5BaQ2IiN3kRdAK-20" value="实付金额" style="text;strokeColor=#36393d;align=left;verticalAlign=top;spacingLeft=4;spacingRight=4;overflow=hidden;rotatable=0;points=[[0,0.5],[1,0.5]];portConstraint=eastwest;fontStyle=1;fillColor=#CDEB8B;" vertex="1" parent="uZ23WW5BaQ2IiN3kRdAK-1">
          <mxGeometry y="208" width="140" height="26" as="geometry" />
        </mxCell>
        <mxCell id="uZ23WW5BaQ2IiN3kRdAK-21" value="订单状态" style="text;strokeColor=#36393d;align=left;verticalAlign=top;spacingLeft=4;spacingRight=4;overflow=hidden;rotatable=0;points=[[0,0.5],[1,0.5]];portConstraint=eastwest;fontStyle=1;fillColor=#CDEB8B;" vertex="1" parent="uZ23WW5BaQ2IiN3kRdAK-1">
          <mxGeometry y="234" width="140" height="26" as="geometry" />
        </mxCell>
        <mxCell id="uZ23WW5BaQ2IiN3kRdAK-22" value="支付时间" style="text;strokeColor=#36393d;align=left;verticalAlign=top;spacingLeft=4;spacingRight=4;overflow=hidden;rotatable=0;points=[[0,0.5],[1,0.5]];portConstraint=eastwest;fontStyle=1;fillColor=#CDEB8B;" vertex="1" parent="uZ23WW5BaQ2IiN3kRdAK-1">
          <mxGeometry y="260" width="140" height="26" as="geometry" />
        </mxCell>
        <mxCell id="uZ23WW5BaQ2IiN3kRdAK-23" value="退款时间" style="text;strokeColor=#36393d;align=left;verticalAlign=top;spacingLeft=4;spacingRight=4;overflow=hidden;rotatable=0;points=[[0,0.5],[1,0.5]];portConstraint=eastwest;fontStyle=1;fillColor=#CDEB8B;" vertex="1" parent="uZ23WW5BaQ2IiN3kRdAK-1">
          <mxGeometry y="286" width="140" height="26" as="geometry" />
        </mxCell>
        <mxCell id="uZ23WW5BaQ2IiN3kRdAK-24" value="卖家备注" style="text;strokeColor=#36393d;align=left;verticalAlign=top;spacingLeft=4;spacingRight=4;overflow=hidden;rotatable=0;points=[[0,0.5],[1,0.5]];portConstraint=eastwest;fontStyle=1;fillColor=#CDEB8B;" vertex="1" parent="uZ23WW5BaQ2IiN3kRdAK-1">
          <mxGeometry y="312" width="140" height="26" as="geometry" />
        </mxCell>
        <mxCell id="uZ23WW5BaQ2IiN3kRdAK-25" value="买家备注" style="text;strokeColor=#36393d;align=left;verticalAlign=top;spacingLeft=4;spacingRight=4;overflow=hidden;rotatable=0;points=[[0,0.5],[1,0.5]];portConstraint=eastwest;fontStyle=1;fillColor=#CDEB8B;" vertex="1" parent="uZ23WW5BaQ2IiN3kRdAK-1">
          <mxGeometry y="338" width="140" height="26" as="geometry" />
        </mxCell>
        <mxCell id="uZ23WW5BaQ2IiN3kRdAK-26" value="转化状态" style="text;strokeColor=#36393d;align=left;verticalAlign=top;spacingLeft=4;spacingRight=4;overflow=hidden;rotatable=0;points=[[0,0.5],[1,0.5]];portConstraint=eastwest;fontStyle=1;fillColor=#CDEB8B;" vertex="1" parent="uZ23WW5BaQ2IiN3kRdAK-1">
          <mxGeometry y="364" width="140" height="26" as="geometry" />
        </mxCell>
        <mxCell id="uZ23WW5BaQ2IiN3kRdAK-27" value="三方订单快照" style="text;strokeColor=#36393d;align=left;verticalAlign=top;spacingLeft=4;spacingRight=4;overflow=hidden;rotatable=0;points=[[0,0.5],[1,0.5]];portConstraint=eastwest;fontStyle=1;fillColor=#CDEB8B;" vertex="1" parent="uZ23WW5BaQ2IiN3kRdAK-1">
          <mxGeometry y="390" width="140" height="26" as="geometry" />
        </mxCell>
        <mxCell id="uZ23WW5BaQ2IiN3kRdAK-29" value="报单人id" style="text;strokeColor=#36393d;align=left;verticalAlign=top;spacingLeft=4;spacingRight=4;overflow=hidden;rotatable=0;points=[[0,0.5],[1,0.5]];portConstraint=eastwest;fontStyle=1;fillColor=#CDEB8B;" vertex="1" parent="uZ23WW5BaQ2IiN3kRdAK-1">
          <mxGeometry y="416" width="140" height="26" as="geometry" />
        </mxCell>
        <mxCell id="uZ23WW5BaQ2IiN3kRdAK-30" value="报单人名称" style="text;strokeColor=#36393d;align=left;verticalAlign=top;spacingLeft=4;spacingRight=4;overflow=hidden;rotatable=0;points=[[0,0.5],[1,0.5]];portConstraint=eastwest;fontStyle=1;fillColor=#CDEB8B;" vertex="1" parent="uZ23WW5BaQ2IiN3kRdAK-1">
          <mxGeometry y="442" width="140" height="26" as="geometry" />
        </mxCell>
        <mxCell id="uZ23WW5BaQ2IiN3kRdAK-32" value="创建时间" style="text;strokeColor=#36393d;align=left;verticalAlign=top;spacingLeft=4;spacingRight=4;overflow=hidden;rotatable=0;points=[[0,0.5],[1,0.5]];portConstraint=eastwest;fontStyle=1;fillColor=#CDEB8B;" vertex="1" parent="uZ23WW5BaQ2IiN3kRdAK-1">
          <mxGeometry y="468" width="140" height="26" as="geometry" />
        </mxCell>
        <mxCell id="uZ23WW5BaQ2IiN3kRdAK-33" value="渠道订单商品" style="swimlane;fontStyle=1;childLayout=stackLayout;horizontal=1;startSize=26;horizontalStack=0;resizeParent=1;resizeParentMax=0;resizeLast=0;collapsible=1;marginBottom=0;strokeColor=#36393d;rounded=1;fillColor=#ffcc99;" vertex="1" parent="1">
          <mxGeometry x="105" y="32" width="140" height="234" as="geometry" />
        </mxCell>
        <mxCell id="uZ23WW5BaQ2IiN3kRdAK-34" value="主键" style="text;strokeColor=#36393d;align=left;verticalAlign=top;spacingLeft=4;spacingRight=4;overflow=hidden;rotatable=0;points=[[0,0.5],[1,0.5]];portConstraint=eastwest;fontStyle=1;fillColor=#CDEB8B;" vertex="1" parent="uZ23WW5BaQ2IiN3kRdAK-33">
          <mxGeometry y="26" width="140" height="26" as="geometry" />
        </mxCell>
        <mxCell id="uZ23WW5BaQ2IiN3kRdAK-35" value="渠道订单id" style="text;strokeColor=#36393d;align=left;verticalAlign=top;spacingLeft=4;spacingRight=4;overflow=hidden;rotatable=0;points=[[0,0.5],[1,0.5]];portConstraint=eastwest;fontStyle=1;fillColor=#CDEB8B;" vertex="1" parent="uZ23WW5BaQ2IiN3kRdAK-33">
          <mxGeometry y="52" width="140" height="26" as="geometry" />
        </mxCell>
        <mxCell id="uZ23WW5BaQ2IiN3kRdAK-36" value="商品名称" style="text;strokeColor=#36393d;align=left;verticalAlign=top;spacingLeft=4;spacingRight=4;overflow=hidden;rotatable=0;points=[[0,0.5],[1,0.5]];portConstraint=eastwest;fontStyle=1;fillColor=#CDEB8B;" vertex="1" parent="uZ23WW5BaQ2IiN3kRdAK-33">
          <mxGeometry y="78" width="140" height="26" as="geometry" />
        </mxCell>
        <mxCell id="uZ23WW5BaQ2IiN3kRdAK-37" value="商品数量" style="text;strokeColor=#36393d;align=left;verticalAlign=top;spacingLeft=4;spacingRight=4;overflow=hidden;rotatable=0;points=[[0,0.5],[1,0.5]];portConstraint=eastwest;fontStyle=1;fillColor=#CDEB8B;" vertex="1" parent="uZ23WW5BaQ2IiN3kRdAK-33">
          <mxGeometry y="104" width="140" height="26" as="geometry" />
        </mxCell>
        <mxCell id="uZ23WW5BaQ2IiN3kRdAK-38" value="商品单价" style="text;strokeColor=#36393d;align=left;verticalAlign=top;spacingLeft=4;spacingRight=4;overflow=hidden;rotatable=0;points=[[0,0.5],[1,0.5]];portConstraint=eastwest;fontStyle=1;fillColor=#CDEB8B;" vertex="1" parent="uZ23WW5BaQ2IiN3kRdAK-33">
          <mxGeometry y="130" width="140" height="26" as="geometry" />
        </mxCell>
        <mxCell id="uZ23WW5BaQ2IiN3kRdAK-39" value="总价" style="text;strokeColor=#36393d;align=left;verticalAlign=top;spacingLeft=4;spacingRight=4;overflow=hidden;rotatable=0;points=[[0,0.5],[1,0.5]];portConstraint=eastwest;fontStyle=1;fillColor=#CDEB8B;" vertex="1" parent="uZ23WW5BaQ2IiN3kRdAK-33">
          <mxGeometry y="156" width="140" height="26" as="geometry" />
        </mxCell>
        <mxCell id="uZ23WW5BaQ2IiN3kRdAK-40" value="商品快照json" style="text;strokeColor=#36393d;align=left;verticalAlign=top;spacingLeft=4;spacingRight=4;overflow=hidden;rotatable=0;points=[[0,0.5],[1,0.5]];portConstraint=eastwest;fontStyle=1;fillColor=#CDEB8B;" vertex="1" parent="uZ23WW5BaQ2IiN3kRdAK-33">
          <mxGeometry y="182" width="140" height="26" as="geometry" />
        </mxCell>
        <mxCell id="uZ23WW5BaQ2IiN3kRdAK-51" value="创建时间" style="text;strokeColor=#36393d;align=left;verticalAlign=top;spacingLeft=4;spacingRight=4;overflow=hidden;rotatable=0;points=[[0,0.5],[1,0.5]];portConstraint=eastwest;fontStyle=1;fillColor=#CDEB8B;" vertex="1" parent="uZ23WW5BaQ2IiN3kRdAK-33">
          <mxGeometry y="208" width="140" height="26" as="geometry" />
        </mxCell>
      </root>
    </mxGraphModel>
  </diagram>
</mxfile>
